TITLE ""
FILE "P1Q_t_1410-1419.mp3" MP3
  TRACK 01 AUDIO
    TITLE "P1Q_t_1410-1419_01"
    INDEX 01 00:00:00
  TRACK 02 AUDIO
    TITLE "P1Q_t_1410-1419_02"
    INDEX 01 00:01:16
  TRACK 03 AUDIO
    TITLE "P1Q_t_1410-1419_03"
    INDEX 01 00:01:35
  TRACK 04 AUDIO
    TITLE "P1Q_t_1410-1419_04"
    INDEX 01 00:03:11
  TRACK 05 AUDIO
    TITLE "P1Q_t_1410-1419_05"
    INDEX 01 00:03:28
  TRACK 06 AUDIO
    TITLE "P1Q_t_1410-1419_06"
    INDEX 01 00:07:44
  TRACK 07 AUDIO
    TITLE "P1Q_t_1410-1419_07"
    INDEX 01 00:08:16
  TRACK 08 AUDIO
    TITLE "P1Q_t_1410-1419_08"
    INDEX 01 00:09:50
  TRACK 09 AUDIO
    TITLE "P1Q_t_1410-1419_09"
    INDEX 01 00:09:70
  TRACK 10 AUDIO
    TITLE "P1Q_t_1410-1419_10"
    INDEX 01 00:11:67
  TRACK 11 AUDIO
    TITLE "P1Q_t_1410-1419_11"
    INDEX 01 00:12:12
  TRACK 12 AUDIO
    TITLE "P1Q_t_1410-1419_12"
    INDEX 01 00:16:17
  TRACK 13 AUDIO
    TITLE "P1Q_t_1410-1419_13"
    INDEX 01 00:16:62
  TRACK 14 AUDIO
    TITLE "P1Q_t_1410-1419_14"
    INDEX 01 00:17:75
  TRACK 15 AUDIO
    TITLE "P1Q_t_1410-1419_15"
    INDEX 01 00:18:22
  TRACK 16 AUDIO
    TITLE "P1Q_t_1410-1419_16"
    INDEX 01 00:23:74
  TRACK 17 AUDIO
    TITLE "P1Q_t_1410-1419_17"
    INDEX 01 00:24:21
  TRACK 18 AUDIO
    TITLE "P1Q_t_1410-1419_18"
    INDEX 01 00:29:14
  TRACK 19 AUDIO
    TITLE "P1Q_t_1410-1419_19"
    INDEX 01 00:29:59
  TRACK 20 AUDIO
    TITLE "P1Q_t_1410-1419_20"
    INDEX 01 00:31:05
  TRACK 21 AUDIO
    TITLE "P1Q_t_1410-1419_21"
    INDEX 01 00:31:25
  TRACK 22 AUDIO
    TITLE "P1Q_t_1410-1419_22"
    INDEX 01 00:35:24
  TRACK 23 AUDIO
    TITLE "P1Q_t_1410-1419_23"
    INDEX 01 00:35:44
  TRACK 24 AUDIO
    TITLE "P1Q_t_1410-1419_24"
    INDEX 01 00:40:33
  TRACK 25 AUDIO
    TITLE "P1Q_t_1410-1419_25"
    INDEX 01 00:41:03
  TRACK 26 AUDIO
    TITLE "P1Q_t_1410-1419_26"
    INDEX 01 00:42:01
  TRACK 27 AUDIO
    TITLE "P1Q_t_1410-1419_27"
    INDEX 01 00:42:22
  TRACK 28 AUDIO
    TITLE "P1Q_t_1410-1419_28"
    INDEX 01 00:43:20
  TRACK 29 AUDIO
    TITLE "P1Q_t_1410-1419_29"
    INDEX 01 00:43:40
  TRACK 30 AUDIO
    TITLE "P1Q_t_1410-1419_30"
    INDEX 01 00:48:54
  TRACK 31 AUDIO
    TITLE "P1Q_t_1410-1419_31"
    INDEX 01 00:49:24
  TRACK 32 AUDIO
    TITLE "P1Q_t_1410-1419_32"
    INDEX 01 00:50:45
  TRACK 33 AUDIO
    TITLE "P1Q_t_1410-1419_33"
    INDEX 01 00:50:65
  TRACK 34 AUDIO
    TITLE "P1Q_t_1410-1419_34"
    INDEX 01 00:52:56
  TRACK 35 AUDIO
    TITLE "P1Q_t_1410-1419_35"
    INDEX 01 00:53:01
  TRACK 36 AUDIO
    TITLE "P1Q_t_1410-1419_36"
    INDEX 01 00:57:24
  TRACK 37 AUDIO
    TITLE "P1Q_t_1410-1419_37"
    INDEX 01 00:57:69
  TRACK 38 AUDIO
    TITLE "P1Q_t_1410-1419_38"
    INDEX 01 00:59:17
  TRACK 39 AUDIO
    TITLE "P1Q_t_1410-1419_39"
    INDEX 01 00:59:35
  TRACK 40 AUDIO
    TITLE "P1Q_t_1410-1419_40"
    INDEX 01 01:03:72
  TRACK 41 AUDIO
    TITLE "P1Q_t_1410-1419_41"
    INDEX 01 01:04:18
  TRACK 42 AUDIO
    TITLE "P1Q_t_1410-1419_42"
    INDEX 01 01:09:51
  TRACK 43 AUDIO
    TITLE "P1Q_t_1410-1419_43"
    INDEX 01 01:10:21
  TRACK 44 AUDIO
    TITLE "P1Q_t_1410-1419_44"
    INDEX 01 01:11:46
  TRACK 45 AUDIO
    TITLE "P1Q_t_1410-1419_45"
    INDEX 01 01:11:65
  TRACK 46 AUDIO
    TITLE "P1Q_t_1410-1419_46"
    INDEX 01 01:17:05
  TRACK 47 AUDIO
    TITLE "P1Q_t_1410-1419_47"
    INDEX 01 01:17:25
  TRACK 48 AUDIO
    TITLE "P1Q_t_1410-1419_48"
    INDEX 01 01:21:46
  TRACK 49 AUDIO
    TITLE "P1Q_t_1410-1419_49"
    INDEX 01 01:22:16
  TRACK 50 AUDIO
    TITLE "P1Q_t_1410-1419_50"
    INDEX 01 01:23:27
  TRACK 51 AUDIO
    TITLE "P1Q_t_1410-1419_51"
    INDEX 01 01:23:49
  TRACK 52 AUDIO
    TITLE "P1Q_t_1410-1419_52"
    INDEX 01 01:28:19
  TRACK 53 AUDIO
    TITLE "P1Q_t_1410-1419_53"
    INDEX 01 01:28:38
  TRACK 54 AUDIO
    TITLE "P1Q_t_1410-1419_54"
    INDEX 01 01:32:73
  TRACK 55 AUDIO
    TITLE "P1Q_t_1410-1419_55"
    INDEX 01 01:33:45
  TRACK 56 AUDIO
    TITLE "P1Q_t_1410-1419_56"
    INDEX 01 01:34:70
  TRACK 57 AUDIO
    TITLE "P1Q_t_1410-1419_57"
    INDEX 01 01:35:17
  TRACK 58 AUDIO
    TITLE "P1Q_t_1410-1419_58"
    INDEX 01 01:37:10
  TRACK 59 AUDIO
    TITLE "P1Q_t_1410-1419_59"
    INDEX 01 01:37:29
  TRACK 60 AUDIO
    TITLE "P1Q_t_1410-1419_60"
    INDEX 01 01:41:72
